<svg width="14" height="9" viewBox="0 0 14 9" fill="none" xmlns="http://www.w3.org/2000/svg">
<path fill-rule="evenodd" clip-rule="evenodd" d="M0 4.50001C0 4.3674 0.0526784 4.24022 0.146447 4.14645C0.240215 4.05268 0.367392 4.00001 0.5 4.00001H12.293L9.146 0.854006C9.05211 0.760119 8.99937 0.632782 8.99937 0.500006C8.99937 0.36723 9.05211 0.239893 9.146 0.146006C9.23989 0.0521192 9.36722 -0.000625607 9.5 -0.00062561C9.63278 -0.000625613 9.76011 0.0521192 9.854 0.146006L13.854 4.14601C13.9006 4.19245 13.9375 4.24763 13.9627 4.30837C13.9879 4.36912 14.0009 4.43424 14.0009 4.50001C14.0009 4.56577 13.9879 4.63089 13.9627 4.69164C13.9375 4.75238 13.9006 4.80756 13.854 4.85401L9.854 8.85401C9.76011 8.94789 9.63278 9.00064 9.5 9.00064C9.36722 9.00064 9.23989 8.94789 9.146 8.85401C9.05211 8.76012 8.99937 8.63278 8.99937 8.50001C8.99937 8.36723 9.05211 8.23989 9.146 8.14601L12.293 5.00001H0.5C0.367392 5.00001 0.240215 4.94733 0.146447 4.85356C0.0526784 4.75979 0 4.63261 0 4.50001Z" fill="#FCA311"/>
</svg>
