<svg width="9" height="14" viewBox="0 0 9 14" fill="none" xmlns="http://www.w3.org/2000/svg">
<path fill-rule="evenodd" clip-rule="evenodd" d="M4.50002 0C4.63263 0 4.75981 0.0526784 4.85357 0.146447C4.94734 0.240215 5.00002 0.367392 5.00002 0.5V12.293L8.14602 9.146C8.23991 9.05211 8.36725 8.99937 8.50002 8.99937C8.6328 8.99937 8.76013 9.05211 8.85402 9.146C8.94791 9.23989 9.00065 9.36722 9.00065 9.5C9.00065 9.63278 8.94791 9.76011 8.85402 9.854L4.85402 13.854C4.80758 13.9006 4.7524 13.9375 4.69165 13.9627C4.63091 13.9879 4.56579 14.0009 4.50002 14.0009C4.43425 14.0009 4.36913 13.9879 4.30839 13.9627C4.24764 13.9375 4.19247 13.9006 4.14602 13.854L0.146021 9.854C0.0521345 9.76011 -0.000610355 9.63278 -0.000610352 9.5C-0.000610348 9.36722 0.0521345 9.23989 0.146021 9.146C0.239908 9.05211 0.367245 8.99937 0.500021 8.99937C0.632797 8.99937 0.760135 9.05211 0.854021 9.146L4.00002 12.293V0.5C4.00002 0.367392 4.0527 0.240215 4.14647 0.146447C4.24024 0.0526784 4.36741 0 4.50002 0Z" fill="#FCA311"/>
</svg>
