<svg width="37" height="37" viewBox="0 0 37 37" fill="none" xmlns="http://www.w3.org/2000/svg">
<path d="M18.25 0.5C8.326 0.5 0.25 8.576 0.25 18.5C0.25 28.424 8.326 36.5 18.25 36.5C28.174 36.5 36.25 28.424 36.25 18.5C36.25 8.576 28.174 0.5 18.25 0.5ZM18.25 3.5C26.5525 3.5 33.25 10.1975 33.25 18.5C33.2537 22.0909 31.966 25.5635 29.622 28.2839C27.278 31.0043 24.034 32.7912 20.482 33.3185V22.874H24.754L25.4245 18.5345H20.482V16.1645C20.482 14.3645 21.0745 12.764 22.759 12.764H25.4665V8.978C24.991 8.9135 23.9845 8.774 22.0825 8.774C18.1105 8.774 15.7825 10.871 15.7825 15.65V18.5345H11.6995V22.874H15.7825V33.281C12.2796 32.7045 9.09586 30.9012 6.80004 28.1935C4.50422 25.4858 3.24593 22.05 3.25 18.5C3.25 10.1975 9.9475 3.5 18.25 3.5Z" fill="#14213D"/>
</svg>
