<svg width="41" height="41" viewBox="0 0 41 41" fill="none" xmlns="http://www.w3.org/2000/svg">
<path d="M28.7717 40.4827C28.2412 40.4827 27.7325 40.272 27.3574 39.8969C26.9824 39.5219 26.7717 39.0131 26.7717 38.4827V33.2827C26.8338 32.6846 26.7698 32.08 26.5838 31.5082C26.3977 30.9363 26.0938 30.4098 25.6917 29.9627C25.4427 29.6927 25.2728 29.3593 25.2008 28.9991C25.1288 28.6389 25.1574 28.2658 25.2834 27.9208C25.4094 27.5758 25.6281 27.2721 25.9153 27.0431C26.2025 26.8142 26.5472 26.6687 26.9117 26.6227C31.7917 26.0427 36.2917 24.4827 36.2917 16.0227C36.2932 14.4429 35.8269 12.8979 34.9517 11.5827C34.144 10.372 33.8491 8.89045 34.1317 7.46271C34.3119 6.53136 34.3119 5.57407 34.1317 4.64271C32.6341 5.14907 31.224 5.88446 29.9517 6.82271C29.7111 6.99354 29.4357 7.10903 29.1453 7.1609C28.8548 7.21277 28.5565 7.19973 28.2717 7.12271C24.6623 6.10283 20.841 6.10283 17.2317 7.12271C16.9468 7.19973 16.6485 7.21277 16.358 7.1609C16.0676 7.10903 15.7922 6.99354 15.5517 6.82271C14.2715 5.87359 12.8465 5.13745 11.3317 4.64271C11.1415 5.57309 11.1415 6.53234 11.3317 7.46271C11.5938 8.90842 11.2856 10.3995 10.4717 11.6227C9.60017 12.9472 9.13445 14.4973 9.13165 16.0827C9.13165 23.8627 12.8917 25.9427 18.5317 26.6627C18.9007 26.7085 19.2497 26.8563 19.5394 27.0895C19.8291 27.3226 20.048 27.632 20.1716 27.9827C20.2879 28.323 20.3103 28.6884 20.2364 29.0404C20.1625 29.3924 19.995 29.7179 19.7516 29.9827C19.3627 30.3985 19.0641 30.8905 18.8747 31.4275C18.6854 31.9645 18.6095 32.5349 18.6517 33.1027V38.4827C18.6517 39.0131 18.4409 39.5219 18.0659 39.8969C17.6908 40.272 17.1821 40.4827 16.6517 40.4827C16.1212 40.4827 15.6125 40.272 15.2374 39.8969C14.8624 39.5219 14.6517 39.0131 14.6517 38.4827V37.3427C12.6864 37.5687 10.6957 37.3054 8.85682 36.5761C7.01792 35.8468 5.38784 34.6742 4.11165 33.1627C3.45566 32.4356 2.66861 31.8385 1.79165 31.4027C1.53689 31.337 1.29755 31.2219 1.08731 31.0637C0.877061 30.9055 0.700027 30.7075 0.56631 30.4809C0.432594 30.2544 0.344814 30.0037 0.307983 29.7432C0.271152 29.4827 0.28599 29.2175 0.351651 28.9627C0.417312 28.7079 0.53251 28.4686 0.690667 28.2584C0.848824 28.0481 1.04684 27.8711 1.27342 27.7374C1.49999 27.6037 1.75069 27.5159 2.01119 27.479C2.27168 27.4422 2.53689 27.4571 2.79165 27.5227C4.33015 28.0832 5.70485 29.018 6.79165 30.2427C8.79165 32.2427 10.7916 34.0027 14.5917 33.2827C14.5248 32.2089 14.6815 31.1329 15.0517 30.1227C10.9317 29.0827 5.05165 26.1227 5.05165 16.1227C5.04638 13.754 5.74227 11.4367 7.05165 9.46271C7.29486 9.09832 7.388 8.65411 7.31165 8.22271C6.90751 6.06386 7.13673 3.83419 7.97165 1.80272C8.0851 1.53184 8.2568 1.28928 8.47457 1.09225C8.69233 0.895228 8.95081 0.748576 9.23165 0.662715C9.91165 0.462715 12.3517 0.0627156 16.9717 3.06272C20.7116 2.16272 24.6117 2.16272 28.3517 3.06272C32.9717 0.0627156 35.4117 0.442715 36.0717 0.662715C36.3525 0.748576 36.611 0.895228 36.8287 1.09225C37.0465 1.28928 37.2182 1.53184 37.3317 1.80272C38.1682 3.84078 38.3974 6.07733 37.9917 8.24271C37.9507 8.43782 37.9491 8.63912 37.9869 8.83486C38.0247 9.0306 38.1011 9.21685 38.2117 9.38271C39.5248 11.3623 40.2209 13.6872 40.2117 16.0627C40.2117 26.2027 34.3717 29.1427 30.2116 30.0627C30.5781 31.1359 30.7277 32.2712 30.6517 33.4027V38.4827C30.6526 38.993 30.4584 39.4843 30.1089 39.8561C29.7594 40.2279 29.281 40.4521 28.7717 40.4827Z" fill="#14213D"/>
</svg>
