<svg width="45" height="45" viewBox="0 0 45 45" fill="none" xmlns="http://www.w3.org/2000/svg">
<path fill-rule="evenodd" clip-rule="evenodd" d="M13.18 0.632C15.526 0.524 16.274 0.5 22.25 0.5C28.226 0.5 28.974 0.526 31.318 0.632C33.662 0.738 35.262 1.112 36.662 1.654C38.128 2.208 39.458 3.074 40.558 4.194C41.678 5.292 42.542 6.62 43.094 8.088C43.638 9.488 44.01 11.088 44.118 13.428C44.226 15.778 44.25 16.526 44.25 22.5C44.25 28.476 44.224 29.224 44.118 31.57C44.012 33.91 43.638 35.51 43.094 36.91C42.542 38.3782 41.6766 39.7084 40.558 40.808C39.458 41.928 38.128 42.792 36.662 43.344C35.262 43.888 33.662 44.26 31.322 44.368C28.974 44.476 28.226 44.5 22.25 44.5C16.274 44.5 15.526 44.474 13.18 44.368C10.84 44.262 9.24 43.888 7.84 43.344C6.37184 42.7919 5.04164 41.9265 3.942 40.808C2.82276 39.7093 1.95663 38.3798 1.404 36.912C0.862 35.512 0.49 33.912 0.382 31.572C0.274 29.222 0.25 28.474 0.25 22.5C0.25 16.524 0.276 15.776 0.382 13.432C0.488 11.088 0.862 9.488 1.404 8.088C1.95745 6.62016 2.82424 5.29063 3.944 4.192C5.04208 3.073 6.37094 2.20689 7.838 1.654C9.238 1.112 10.838 0.74 13.178 0.632H13.18ZM31.14 4.592C28.82 4.486 28.124 4.464 22.25 4.464C16.376 4.464 15.68 4.486 13.36 4.592C11.214 4.69 10.05 5.048 9.274 5.35C8.248 5.75 7.514 6.224 6.744 6.994C6.01409 7.7041 5.45236 8.56856 5.1 9.524C4.798 10.3 4.44 11.464 4.342 13.61C4.236 15.93 4.214 16.626 4.214 22.5C4.214 28.374 4.236 29.07 4.342 31.39C4.44 33.536 4.798 34.7 5.1 35.476C5.452 36.43 6.014 37.296 6.744 38.006C7.454 38.736 8.32 39.298 9.274 39.65C10.05 39.952 11.214 40.31 13.36 40.408C15.68 40.514 16.374 40.536 22.25 40.536C28.126 40.536 28.82 40.514 31.14 40.408C33.286 40.31 34.45 39.952 35.226 39.65C36.252 39.25 36.986 38.776 37.756 38.006C38.486 37.296 39.048 36.43 39.4 35.476C39.702 34.7 40.06 33.536 40.158 31.39C40.264 29.07 40.286 28.374 40.286 22.5C40.286 16.626 40.264 15.93 40.158 13.61C40.06 11.464 39.702 10.3 39.4 9.524C39 8.498 38.526 7.764 37.756 6.994C37.0459 6.26414 36.1814 5.70242 35.226 5.35C34.45 5.048 33.286 4.69 31.14 4.592ZM19.44 29.282C21.0093 29.9353 22.7568 30.0234 24.3839 29.5314C26.011 29.0395 27.4168 27.9978 28.3612 26.5845C29.3057 25.1711 29.7301 23.4737 29.5621 21.7822C29.3941 20.0907 28.644 18.5099 27.44 17.31C26.6725 16.543 25.7444 15.9556 24.7227 15.5903C23.7009 15.225 22.6109 15.0907 21.531 15.1972C20.4511 15.3037 19.4083 15.6484 18.4776 16.2063C17.5469 16.7642 16.7515 17.5215 16.1486 18.4237C15.5457 19.3259 15.1504 20.3506 14.991 21.4239C14.8317 22.4973 14.9123 23.5926 15.2271 24.631C15.5419 25.6695 16.083 26.6252 16.8114 27.4294C17.5399 28.2337 18.4376 28.8664 19.44 29.282ZM14.254 14.504C15.304 13.4539 16.5506 12.621 17.9226 12.0527C19.2946 11.4844 20.765 11.1919 22.25 11.1919C23.735 11.1919 25.2054 11.4844 26.5774 12.0527C27.9494 12.621 29.196 13.4539 30.246 14.504C31.296 15.554 32.129 16.8006 32.6973 18.1726C33.2656 19.5446 33.5581 21.015 33.5581 22.5C33.5581 23.985 33.2656 25.4554 32.6973 26.8274C32.129 28.1994 31.296 29.446 30.246 30.496C28.1253 32.6167 25.2491 33.8081 22.25 33.8081C19.2509 33.8081 16.3747 32.6167 14.254 30.496C12.1333 28.3753 10.9419 25.4991 10.9419 22.5C10.9419 19.5009 12.1333 16.6247 14.254 14.504ZM36.066 12.876C36.3262 12.6305 36.5345 12.3354 36.6786 12.0079C36.8227 11.6805 36.8996 11.3275 36.9048 10.9699C36.91 10.6122 36.8434 10.2571 36.709 9.92562C36.5745 9.59414 36.3749 9.29302 36.1219 9.04008C35.869 8.78714 35.5679 8.58751 35.2364 8.45304C34.9049 8.31856 34.5498 8.25195 34.1921 8.25717C33.8345 8.26238 33.4815 8.33931 33.1541 8.48339C32.8266 8.62748 32.5315 8.83579 32.286 9.096C31.8086 9.60206 31.5473 10.2742 31.5574 10.9699C31.5675 11.6655 31.8484 12.3298 32.3403 12.8217C32.8322 13.3136 33.4965 13.5945 34.1921 13.6046C34.8878 13.6147 35.5599 13.3534 36.066 12.876Z" fill="#14213D"/>
</svg>
