<svg width="38" height="39" viewBox="0 0 38 39" fill="none" xmlns="http://www.w3.org/2000/svg">
<path d="M13.5 10.5C13.5 10.945 13.368 11.38 13.1208 11.75C12.8736 12.12 12.5222 12.4084 12.111 12.5787C11.6999 12.749 11.2475 12.7936 10.811 12.7068C10.3746 12.62 9.97368 12.4057 9.65901 12.091C9.34434 11.7763 9.13005 11.3754 9.04323 10.939C8.95642 10.5025 9.00097 10.0501 9.17127 9.63896C9.34157 9.22783 9.62996 8.87643 9.99997 8.62919C10.37 8.38196 10.805 8.25 11.25 8.25C11.8467 8.25 12.419 8.48705 12.841 8.90901C13.2629 9.33097 13.5 9.90326 13.5 10.5ZM37.5 3.75V35.25C37.4991 36.0454 37.1827 36.8079 36.6203 37.3703C36.0579 37.9327 35.2954 38.2491 34.5 38.25H3C2.20462 38.2491 1.44208 37.9327 0.879667 37.3703C0.317251 36.8079 0.000893291 36.0454 0 35.25V3.75C0.000893291 2.95462 0.317251 2.19208 0.879667 1.62967C1.44208 1.06725 2.20462 0.750893 3 0.75H34.5C35.2954 0.750893 36.0579 1.06725 36.6203 1.62967C37.1827 2.19208 37.4991 2.95462 37.5 3.75ZM34.5019 35.25L34.5 3.75H3V35.25H34.5H34.5019ZM11.25 15C10.8522 15 10.4706 15.158 10.1893 15.4393C9.90804 15.7206 9.75 16.1022 9.75 16.5V28.5C9.75 28.8978 9.90804 29.2794 10.1893 29.5607C10.4706 29.842 10.8522 30 11.25 30C11.6478 30 12.0294 29.842 12.3107 29.5607C12.592 29.2794 12.75 28.8978 12.75 28.5V16.5C12.75 16.1022 12.592 15.7206 12.3107 15.4393C12.0294 15.158 11.6478 15 11.25 15ZM22.5 15C21.1485 14.9985 19.8281 15.4052 18.7116 16.1666C18.6298 15.807 18.4184 15.4901 18.1177 15.2766C17.817 15.063 17.4482 14.9678 17.0817 15.009C16.7152 15.0503 16.3768 15.2251 16.1311 15.5002C15.8855 15.7753 15.7498 16.1312 15.75 16.5V28.5C15.75 28.8978 15.908 29.2794 16.1893 29.5607C16.4706 29.842 16.8522 30 17.25 30C17.6478 30 18.0294 29.842 18.3107 29.5607C18.592 29.2794 18.75 28.8978 18.75 28.5V21.75C18.75 20.7554 19.1451 19.8016 19.8484 19.0984C20.5516 18.3951 21.5054 18 22.5 18C23.4946 18 24.4484 18.3951 25.1516 19.0984C25.8549 19.8016 26.25 20.7554 26.25 21.75V28.5C26.25 28.8978 26.408 29.2794 26.6893 29.5607C26.9706 29.842 27.3522 30 27.75 30C28.1478 30 28.5294 29.842 28.8107 29.5607C29.092 29.2794 29.25 28.8978 29.25 28.5V21.75C29.248 19.9604 28.5362 18.2447 27.2708 16.9792C26.0053 15.7138 24.2896 15.002 22.5 15Z" fill="#14213D"/>
</svg>
