<svg width="20" height="15" viewBox="0 0 20 15" fill="none" xmlns="http://www.w3.org/2000/svg">
<path d="M0 1.495C0 0.945 0.446 0.5 0.995 0.5H9.005C9.26889 0.5 9.52197 0.60483 9.70857 0.791429C9.89517 0.978027 10 1.23111 10 1.495C10 1.75889 9.89517 2.01197 9.70857 2.19857C9.52197 2.38517 9.26889 2.49 9.005 2.49H0.995C0.731109 2.49 0.478028 2.38517 0.291429 2.19857C0.10483 2.01197 0 1.75889 0 1.495Z" fill="#FCA311"/>
<path d="M0 7.5C0 6.95 0.446 6.505 0.995 6.505H19.005C19.2689 6.505 19.522 6.60983 19.7086 6.79643C19.8952 6.98303 20 7.23611 20 7.5C20 7.7639 19.8952 8.01698 19.7086 8.20358C19.522 8.39017 19.2689 8.495 19.005 8.495H0.995C0.731109 8.495 0.478028 8.39017 0.291429 8.20358C0.10483 8.01698 0 7.7639 0 7.5Z" fill="#FCA311"/>
<path d="M0.995 12.51C0.731109 12.51 0.478028 12.6148 0.291429 12.8014C0.10483 12.988 0 13.2411 0 13.505C0 13.7689 0.10483 14.022 0.291429 14.2086C0.478028 14.3952 0.731109 14.5 0.995 14.5H13.005C13.2689 14.5 13.522 14.3952 13.7086 14.2086C13.8952 14.022 14 13.7689 14 13.505C14 13.2411 13.8952 12.988 13.7086 12.8014C13.522 12.6148 13.2689 12.51 13.005 12.51H0.995Z" fill="#FCA311"/>
</svg>
