<svg width="48" height="39" viewBox="0 0 48 39" fill="none" xmlns="http://www.w3.org/2000/svg">
<path d="M45.75 1.57626C43.8348 2.92722 41.7142 3.96048 39.47 4.63626C38.2655 3.25129 36.6647 2.26965 34.8841 1.82412C33.1035 1.37858 31.229 1.49066 29.5142 2.14517C27.7993 2.79969 26.3269 3.96507 25.296 5.4837C24.265 7.00233 23.7254 8.80094 23.75 10.6363V12.6363C20.2353 12.7274 16.7525 11.9479 13.612 10.3672C10.4715 8.78642 7.77063 6.45353 5.75 3.57626C5.75 3.57626 -2.25 21.5763 15.75 29.5763C11.6311 32.3722 6.72431 33.7741 1.75 33.5763C19.75 43.5763 41.75 33.5763 41.75 10.5763C41.7482 10.0192 41.6946 9.46345 41.59 8.91626C43.6312 6.90325 45.0717 4.36169 45.75 1.57626V1.57626Z" stroke="#14213D" stroke-width="3" stroke-linecap="round" stroke-linejoin="round"/>
</svg>
