<svg width="49" height="49" viewBox="0 0 49 49" fill="none" xmlns="http://www.w3.org/2000/svg">
<path fill-rule="evenodd" clip-rule="evenodd" d="M35.1949 29.2641C34.5989 28.9661 31.6769 27.5301 31.1329 27.3301C30.5889 27.1321 30.1929 27.0341 29.7949 27.6301C29.3989 28.2221 28.2609 29.5621 27.9149 29.9581C27.5669 30.3561 27.2209 30.4041 26.6269 30.1081C26.0329 29.8081 24.1169 29.1821 21.8469 27.1581C20.0809 25.5821 18.8869 23.6361 18.5409 23.0401C18.1949 22.4461 18.5029 22.1241 18.8009 21.8281C19.0689 21.5621 19.3949 21.1341 19.6929 20.7881C19.9909 20.4401 20.0889 20.1921 20.2869 19.7941C20.4869 19.3981 20.3869 19.0521 20.2369 18.7541C20.0889 18.4561 18.9009 15.5301 18.4049 14.3401C17.9229 13.1821 17.4329 13.3401 17.0689 13.3201C16.7209 13.3041 16.3249 13.3001 15.9289 13.3001C15.5329 13.3001 14.8889 13.4481 14.3449 14.0441C13.7989 14.6381 12.2649 16.0761 12.2649 19.0021C12.2649 21.9261 14.3929 24.7521 14.6909 25.1501C14.9889 25.5461 18.8809 31.5501 24.8429 34.1241C26.2629 34.7361 27.3689 35.1021 28.2309 35.3741C29.6549 35.8281 30.9509 35.7641 31.9749 35.6101C33.1149 35.4401 35.4909 34.1721 35.9869 32.7841C36.4809 31.3961 36.4809 30.2061 36.3329 29.9581C36.1849 29.7101 35.7889 29.5621 35.1929 29.2641H35.1949ZM24.3509 44.0701H24.3429C20.8018 44.0707 17.3257 43.1188 14.2789 41.3141L13.5589 40.8861L6.07494 42.8501L8.07294 35.5541L7.60294 34.8061C5.62322 31.6548 4.57553 28.0076 4.58094 24.2861C4.58494 13.3861 13.4529 4.51808 24.3589 4.51808C29.6389 4.51808 34.6029 6.57808 38.3349 10.3141C40.1757 12.1472 41.6347 14.3272 42.6275 16.7279C43.6203 19.1285 44.1272 21.7022 44.1189 24.3001C44.1149 35.2001 35.2469 44.0701 24.3509 44.0701ZM41.1749 7.47608C38.9713 5.25793 36.3494 3.49916 33.4611 2.30168C30.5728 1.10421 27.4756 0.491848 24.3489 0.500082C11.2409 0.500082 0.568944 11.1701 0.564944 24.2841C0.562944 28.4761 1.65694 32.5681 3.73894 36.1741L0.364944 48.5001L12.9729 45.1921C16.4607 47.0923 20.3691 48.088 24.3409 48.0881H24.3509C37.4589 48.0881 48.1309 37.4181 48.1349 24.3021C48.1446 21.1766 47.5345 18.0803 46.3398 15.1921C45.1451 12.304 43.3897 9.68142 41.1749 7.47608Z" fill="#14213D"/>
</svg>
